<svg xmlns="http://www.w3.org/2000/svg" width="104" height="87.36" viewBox="0 0 104 87.36">
  <path id="path" d="M40.632-256.395a19.917,19.917,0,0,0-16.765,8.264q-5.489,7.231-5.489,17.561,0,14.9,8.9,31.727Q37.368-180.1,53.391-170.805a11.643,11.643,0,0,0,5.638,1.771,5.409,5.409,0,0,0,3.709-1.181,6.413,6.413,0,0,0,2.522-5.165q0-2.8-4.9-7.083a56.552,56.552,0,0,1-16.616-24.5,19.741,19.741,0,0,1-1.039-5.46q0-3.689,5.786-4.722,6.528-1.181,10.534-8.116a19.909,19.909,0,0,0,2.522-10.035q0-9.739-6.528-15.79Q49.385-256.395,40.632-256.395Zm57.118,0a19.917,19.917,0,0,0-16.765,8.264Q75.5-240.9,75.5-230.57q0,14.9,8.9,31.727,9.94,18.593,26.111,28.038a11.643,11.643,0,0,0,5.638,1.771,5.409,5.409,0,0,0,3.709-1.181,6.413,6.413,0,0,0,2.522-5.165q0-2.951-4.9-7.083a53.281,53.281,0,0,1-16.468-24.5,17.557,17.557,0,0,1-1.187-5.46q0-3.689,5.786-4.722,6.528-1.181,10.534-8.116a19.909,19.909,0,0,0,2.522-10.035q0-9.739-6.528-15.79Q106.5-256.395,97.75-256.395Z" transform="translate(-18.378 256.395)" fill="#fff"/>
</svg>
