<svg xmlns="http://www.w3.org/2000/svg" width="5.69" height="9.993" viewBox="0 0 5.69 9.993">
  <path id="shape" d="M8.535-6.822a.611.611,0,0,0-.047-.239.614.614,0,0,0-.148-.206L3.863-11.647a.568.568,0,0,0-.418-.171.6.6,0,0,0-.305.077.583.583,0,0,0-.215.211.583.583,0,0,0-.08.3.586.586,0,0,0,.178.424L7.1-6.822,3.023-2.843a.59.59,0,0,0-.178.425.588.588,0,0,0,.08.3A.576.576,0,0,0,3.14-1.9a.6.6,0,0,0,.305.077A.568.568,0,0,0,3.863-2L8.339-6.377a.61.61,0,0,0,.149-.206A.6.6,0,0,0,8.535-6.822Z" transform="translate(-2.845 11.818)" fill="#d82300"/>
</svg>
