<svg xmlns="http://www.w3.org/2000/svg" xmlns:xlink="http://www.w3.org/1999/xlink" width="312" height="265.301" viewBox="0 0 312 265.301">
  <defs>
    <linearGradient id="linear-gradient" x1="0.5" x2="0.5" y2="1" gradientUnits="objectBoundingBox">
      <stop offset="0" stop-color="#fff"/>
      <stop offset="1" stop-color="#e6e6e6"/>
    </linearGradient>
    <linearGradient id="linear-gradient-2" x2="1" gradientUnits="objectBoundingBox">
      <stop offset="0" stop-color="#d82300"/>
      <stop offset="1" stop-color="#fa0"/>
    </linearGradient>
  </defs>
  <g id="グループ_7" data-name="グループ 7" transform="translate(247.742 -1164.207)">
    <path id="line" d="M0,0H312V48H0Z" transform="translate(-247.742 1356.206)" fill="url(#linear-gradient)"/>
    <path id="パス_30" data-name="パス 30" d="M36.572,12.3c-.546.154-1.12.308-1.666.462V10.372h1.456V8.846H34.906V6.41h1.61V4.87h-4.9V6.41H33.3V8.846H31.742v1.526H33.3v2.814c-.756.2-1.442.378-2.016.5l.434,1.568c1.442-.42,3.318-.966,5.082-1.484Zm2.044-2.016H42.27v.868H38.616Zm0-2.128H42.27v.868H38.616Zm0-2.128H42.27V6.9H38.616Zm3.822,9.688c-.238,0-.266-.056-.266-.462V12.514h1.722V4.674H37.062v7.84h1.022c-.182,1.638-.63,2.786-3.164,3.416a4.931,4.931,0,0,1,.924,1.372c2.982-.882,3.626-2.506,3.878-4.788h.854v2.744c0,1.414.28,1.89,1.568,1.89h1.05c1.036,0,1.4-.518,1.54-2.436a4.281,4.281,0,0,1-1.386-.616c-.028,1.4-.1,1.624-.336,1.624ZM54.87,12.136h2.772V10.6H54.87V8.272H53.19V10.6H50.348v1.54H53.19v3.192H49.8v1.54h8.386v-1.54H54.87ZM51.412,6.074c.2-.5.378-1.008.532-1.526l-1.75-.42c-.168.644-.378,1.288-.616,1.946H45.8v1.6h3.038A10.61,10.61,0,0,1,45.35,11.7a11.64,11.64,0,0,1,.826,1.61,10.513,10.513,0,0,0,1.232-.98V17.2H49.1V10.428A16.092,16.092,0,0,0,50.74,7.67h7.49v-1.6Z" transform="translate(-36.742 1412.206)" fill="#d82300"/>
    <path id="bk" d="M0,0H90V240H0Z" transform="translate(-36.742 1164.207)" fill="#d82300"/>
    <path id="パス_29" data-name="パス 29" d="M17.76,28h11.9V25.024H25.776c-.84,0-2.016.1-2.9.192,3.168-3.312,5.952-6.432,5.952-9.456,0-3.264-2.232-5.4-5.592-5.4a7.152,7.152,0,0,0-5.64,2.712l1.92,1.92a4.678,4.678,0,0,1,3.264-1.848,2.5,2.5,0,0,1,2.664,2.808c0,2.568-3.048,5.592-7.68,10.008ZM34.8,20.992l2.76-4.368c.5-.96.984-1.848,1.416-2.784h.1c-.048,1.032-.12,2.664-.12,3.7v3.456ZM38.952,28H42.24V23.7h2.088V20.992H42.24V10.7H37.992L31.368,21.28V23.7h7.584Zm13.128.336c3.648,0,6-3.192,6-9.072,0-5.832-2.352-8.9-6-8.9s-6.024,3.048-6.024,8.9C46.056,25.144,48.432,28.336,52.08,28.336Zm0-2.76c-1.536,0-2.688-1.488-2.688-6.312,0-4.8,1.152-6.144,2.688-6.144s2.664,1.344,2.664,6.144C54.744,24.088,53.616,25.576,52.08,25.576Zm14.136,2.76c3.648,0,6-3.192,6-9.072,0-5.832-2.352-8.9-6-8.9s-6.024,3.048-6.024,8.9C60.192,25.144,62.568,28.336,66.216,28.336Zm0-2.76c-1.536,0-2.688-1.488-2.688-6.312,0-4.8,1.152-6.144,2.688-6.144s2.664,1.344,2.664,6.144C68.88,24.088,67.752,25.576,66.216,25.576ZM44.16,41.732V40.094H31.854v1.638h3.262c-.1,3.374-.21,7.1-3.808,9.114a4.982,4.982,0,0,1,1.2,1.344,8.785,8.785,0,0,0,4.046-6.58H41.22c-.154,3-.378,4.368-.742,4.718a.9.9,0,0,1-.658.182c-.42,0-1.372,0-2.338-.084a4,4,0,0,1,.588,1.638,17.114,17.114,0,0,0,2.436-.014,2.029,2.029,0,0,0,1.5-.7c.546-.616.784-2.31.994-6.608.028-.21.042-.742.042-.742H36.754c.07-.756.1-1.526.126-2.268ZM52.784,45.2V41.676h3.5V45.2Zm-4.956-3.528h3.3V45.2h-3.3Zm10.136-1.652H46.148V52.2h1.68V46.856h8.456v3.388c0,.238-.1.322-.364.336s-1.19.014-1.988-.042a6.8,6.8,0,0,1,.6,1.666A6.468,6.468,0,0,0,57.18,51.9c.588-.266.784-.728.784-1.638Z" transform="translate(-36.742 1256.207)" fill="#fff"/>
    <path id="パス_28" data-name="パス 28" d="M12.191,16h6.454V14.894H15.8c-.518,0-1.148.056-1.68.1,2.408-2.282,4.018-4.368,4.018-6.412a2.815,2.815,0,0,0-2.982-3.038,3.925,3.925,0,0,0-3.024,1.512l.742.728a2.874,2.874,0,0,1,2.128-1.19,1.8,1.8,0,0,1,1.89,2.03c0,1.764-1.484,3.808-4.7,6.622Zm11.046.182c1.946,0,3.192-1.778,3.192-5.348s-1.246-5.292-3.192-5.292-3.206,1.722-3.206,5.292S21.277,16.182,23.237,16.182Zm0-1.022c-1.176,0-1.96-1.3-1.96-4.326,0-3,.784-4.27,1.96-4.27s1.946,1.274,1.946,4.27C25.183,13.858,24.4,15.16,23.237,15.16Zm5.11.84h5.628V14.936H31.917V5.724h-.98a6.182,6.182,0,0,1-2.128.742v.812h1.82v7.658H28.347Zm8.358-7.126c0-1.4.756-2.324,1.736-2.324,1.316,0,2.1,1.12,2.24,3.234a2.69,2.69,0,0,1-2.142,1.372C37.321,11.156,36.705,10.26,36.705,8.874Zm1.456,7.308c1.932,0,3.724-1.6,3.724-5.754,0-3.262-1.47-4.886-3.444-4.886A3.081,3.081,0,0,0,35.5,8.874c0,2.128,1.12,3.234,2.828,3.234a3.193,3.193,0,0,0,2.366-1.26c-.1,3.178-1.246,4.27-2.576,4.27a2.264,2.264,0,0,1-1.708-.784l-.714.8A3.265,3.265,0,0,0,38.161,16.182Zm8.54-3.318V10.092h3.136v2.772Zm9.254,0H50.887V10.092h4.1v-.98h-4.1V6.984h4.424V5.976H46.967c.224-.476.448-.98.644-1.47l-1.05-.252a11.847,11.847,0,0,1-3.15,4.83,6.444,6.444,0,0,1,.9.658,12.935,12.935,0,0,0,2.128-2.758h3.4V9.112H45.665v3.752h-2.3v1.008h6.468v3.206h1.05V13.872h5.068Zm2.52-3.99c0-1.4.756-2.324,1.736-2.324,1.316,0,2.1,1.12,2.24,3.234a2.69,2.69,0,0,1-2.142,1.372C59.091,11.156,58.475,10.26,58.475,8.874Zm1.456,7.308c1.932,0,3.724-1.6,3.724-5.754,0-3.262-1.47-4.886-3.444-4.886a3.081,3.081,0,0,0-2.94,3.332c0,2.128,1.12,3.234,2.828,3.234a3.193,3.193,0,0,0,2.366-1.26c-.1,3.178-1.246,4.27-2.576,4.27a2.264,2.264,0,0,1-1.708-.784l-.714.8A3.265,3.265,0,0,0,59.931,16.182Zm8.316-4.466A17.577,17.577,0,0,0,68.4,9.364h6.4v2.352ZM74.8,6.046V8.37H68.4V6.046Zm1.078-1.022H67.351V9.308c0,2.226-.224,5.068-2.45,7.028a3.94,3.94,0,0,1,.77.756,7.9,7.9,0,0,0,2.408-4.354H74.8v2.8c0,.308-.112.406-.434.42s-1.442.014-2.6-.028a4.966,4.966,0,0,1,.434,1.078,11.258,11.258,0,0,0,2.954-.2c.518-.168.728-.532.728-1.26Z" transform="translate(-136.742 1412.203)"/>
    <path id="bk-2" data-name="bk" d="M0,0H90V90H0Z" transform="translate(-136.742 1314.203)" fill="#545454"/>
    <path id="パス_27" data-name="パス 27" d="M23.251,16.182c1.932,0,3.22-1.162,3.22-2.66a3,3,0,0,0-1.736-2.688v-.07a3.365,3.365,0,0,0,1.372-2.478,2.6,2.6,0,0,0-2.814-2.7,2.611,2.611,0,0,0-2.814,2.6,2.853,2.853,0,0,0,1.386,2.366v.07a3.287,3.287,0,0,0-1.89,2.828C19.975,15.034,21.361,16.182,23.251,16.182Zm.7-5.754c-1.2-.476-2.31-1.008-2.31-2.24a1.58,1.58,0,0,1,1.638-1.666,1.7,1.7,0,0,1,1.736,1.834A2.753,2.753,0,0,1,23.951,10.428Zm-.672,4.8a1.968,1.968,0,0,1-2.142-1.89,2.79,2.79,0,0,1,1.4-2.324c1.456.588,2.716,1.106,2.716,2.478A1.778,1.778,0,0,1,23.279,15.23Zm7.728.952c1.946,0,3.192-1.778,3.192-5.348s-1.246-5.292-3.192-5.292S27.8,7.264,27.8,10.834,29.047,16.182,31.007,16.182Zm0-1.022c-1.176,0-1.96-1.3-1.96-4.326,0-3,.784-4.27,1.96-4.27s1.946,1.274,1.946,4.27C32.953,13.858,32.169,15.16,31.007,15.16Zm7.77,1.022c1.946,0,3.192-1.778,3.192-5.348s-1.246-5.292-3.192-5.292-3.206,1.722-3.206,5.292S36.817,16.182,38.777,16.182Zm0-1.022c-1.176,0-1.96-1.3-1.96-4.326,0-3,.784-4.27,1.96-4.27s1.946,1.274,1.946,4.27C40.723,13.858,39.939,15.16,38.777,15.16ZM55.745,6.354V5.346H43.565V6.354h3.766c-.084,3.57-.28,7.882-4.158,9.94a2.973,2.973,0,0,1,.756.812c2.758-1.54,3.794-4.144,4.2-6.888h5.236c-.2,3.7-.434,5.236-.854,5.614a.845.845,0,0,1-.658.182,23.424,23.424,0,0,1-2.436-.112,2.1,2.1,0,0,1,.364,1.022,19.5,19.5,0,0,0,2.464.056,1.589,1.589,0,0,0,1.19-.5c.546-.588.77-2.254,1.022-6.762.014-.14.014-.5.014-.5H48.255c.1-.966.14-1.932.168-2.856Zm8.386,4v-4.1h4.256v4.1Zm-5.124-4.1h4.1v4.1h-4.1Zm10.43-1.008H57.971v11.83h1.036V11.394h9.38v4.284c0,.266-.1.35-.35.35s-1.176.028-2.128-.014A4.477,4.477,0,0,1,66.3,17.05a8.816,8.816,0,0,0,2.492-.182c.476-.182.644-.518.644-1.19Z" transform="translate(-136.742 1349.202)" fill="#fff"/>
    <path id="パス_26" data-name="パス 26" d="M8.306,16H14.76V14.894H11.918c-.518,0-1.148.056-1.68.1,2.408-2.282,4.018-4.368,4.018-6.412a2.815,2.815,0,0,0-2.982-3.038A3.925,3.925,0,0,0,8.25,7.054l.742.728a2.874,2.874,0,0,1,2.128-1.19,1.8,1.8,0,0,1,1.89,2.03c0,1.764-1.484,3.808-4.7,6.622Zm11.046.182c1.946,0,3.192-1.778,3.192-5.348S21.3,5.542,19.352,5.542s-3.206,1.722-3.206,5.292S17.392,16.182,19.352,16.182Zm0-1.022c-1.176,0-1.96-1.3-1.96-4.326,0-3,.784-4.27,1.96-4.27S21.3,7.838,21.3,10.834C21.3,13.858,20.514,15.16,19.352,15.16Zm5.11.84H30.09V14.936H28.032V5.724h-.98a6.182,6.182,0,0,1-2.128.742v.812h1.82v7.658H24.462Zm10.444.182c1.932,0,3.22-1.162,3.22-2.66a3,3,0,0,0-1.736-2.688v-.07a3.365,3.365,0,0,0,1.372-2.478,2.6,2.6,0,0,0-2.814-2.7,2.611,2.611,0,0,0-2.814,2.6,2.853,2.853,0,0,0,1.386,2.366v.07a3.287,3.287,0,0,0-1.89,2.828C31.63,15.034,33.016,16.182,34.906,16.182Zm.7-5.754c-1.2-.476-2.31-1.008-2.31-2.24a1.58,1.58,0,0,1,1.638-1.666A1.7,1.7,0,0,1,36.67,8.356,2.753,2.753,0,0,1,35.606,10.428Zm-.672,4.8a1.968,1.968,0,0,1-2.142-1.89,2.79,2.79,0,0,1,1.4-2.324c1.456.588,2.716,1.106,2.716,2.478A1.778,1.778,0,0,1,34.934,15.23Zm7.882-2.366V10.092h3.136v2.772Zm9.254,0H47V10.092h4.1v-.98H47V6.984h4.424V5.976H43.082c.224-.476.448-.98.644-1.47l-1.05-.252a11.847,11.847,0,0,1-3.15,4.83,6.444,6.444,0,0,1,.9.658A12.935,12.935,0,0,0,42.55,6.984h3.4V9.112H41.78v3.752h-2.3v1.008h6.468v3.206H47V13.872H52.07ZM54,16H59.63V14.936H57.572V5.724h-.98a6.182,6.182,0,0,1-2.128.742v.812h1.82v7.658H54Zm10.43.182c1.946,0,3.192-1.778,3.192-5.348s-1.246-5.292-3.192-5.292-3.206,1.722-3.206,5.292S62.472,16.182,64.432,16.182Zm0-1.022c-1.176,0-1.96-1.3-1.96-4.326,0-3,.784-4.27,1.96-4.27s1.946,1.274,1.946,4.27C66.378,13.858,65.594,15.16,64.432,15.16Zm7.7-3.444a17.577,17.577,0,0,0,.154-2.352h6.4v2.352Zm6.552-5.67V8.37h-6.4V6.046Zm1.078-1.022H71.236V9.308c0,2.226-.224,5.068-2.45,7.028a3.94,3.94,0,0,1,.77.756,7.9,7.9,0,0,0,2.408-4.354h6.72v2.8c0,.308-.112.406-.434.42s-1.442.014-2.6-.028a4.966,4.966,0,0,1,.434,1.078,11.258,11.258,0,0,0,2.954-.2c.518-.168.728-.532.728-1.26Z" transform="translate(-236.742 1412.205)"/>
    <path id="bk-3" data-name="bk" d="M0,0H90V70H0Z" transform="translate(-236.742 1334.205)" fill="#545454"/>
    <path id="パス_25" data-name="パス 25" d="M22.117,16h1.33c.154-4.018.6-6.412,3.01-9.492V5.724H20.031V6.83H25C23,9.63,22.285,12.108,22.117,16Zm8.89.182c1.946,0,3.192-1.778,3.192-5.348s-1.246-5.292-3.192-5.292S27.8,7.264,27.8,10.834,29.047,16.182,31.007,16.182Zm0-1.022c-1.176,0-1.96-1.3-1.96-4.326,0-3,.784-4.27,1.96-4.27s1.946,1.274,1.946,4.27C32.953,13.858,32.169,15.16,31.007,15.16Zm7.77,1.022c1.946,0,3.192-1.778,3.192-5.348s-1.246-5.292-3.192-5.292-3.206,1.722-3.206,5.292S36.817,16.182,38.777,16.182Zm0-1.022c-1.176,0-1.96-1.3-1.96-4.326,0-3,.784-4.27,1.96-4.27s1.946,1.274,1.946,4.27C40.723,13.858,39.939,15.16,38.777,15.16ZM55.745,6.354V5.346H43.565V6.354h3.766c-.084,3.57-.28,7.882-4.158,9.94a2.973,2.973,0,0,1,.756.812c2.758-1.54,3.794-4.144,4.2-6.888h5.236c-.2,3.7-.434,5.236-.854,5.614a.845.845,0,0,1-.658.182,23.424,23.424,0,0,1-2.436-.112,2.1,2.1,0,0,1,.364,1.022,19.5,19.5,0,0,0,2.464.056,1.589,1.589,0,0,0,1.19-.5c.546-.588.77-2.254,1.022-6.762.014-.14.014-.5.014-.5H48.255c.1-.966.14-1.932.168-2.856Zm8.386,4v-4.1h4.256v4.1Zm-5.124-4.1h4.1v4.1h-4.1Zm10.43-1.008H57.971v11.83h1.036V11.394h9.38v4.284c0,.266-.1.35-.35.35s-1.176.028-2.128-.014A4.477,4.477,0,0,1,66.3,17.05a8.816,8.816,0,0,0,2.492-.182c.476-.182.644-.518.644-1.19Z" transform="translate(-236.742 1359.206)" fill="#fff"/>
    <path id="bk-4" data-name="bk" d="M0,0H230L198.056,40H0Z" transform="translate(-247.742 1172.203)" fill="url(#linear-gradient-2)"/>
    <path id="パス_24" data-name="パス 24" d="M43.713,24.332a10.179,10.179,0,0,1-.742,3.248,8.229,8.229,0,0,1,1.274.6,12.944,12.944,0,0,0,.84-3.612Zm3.122.308a14.249,14.249,0,0,1,.826,2.7l1.316-.462a15.965,15.965,0,0,0-.91-2.632ZM51.2,18.508a16.056,16.056,0,0,0,.686-2l-1.708-.364a11.147,11.147,0,0,1-2.31,4.662l-.1-.168-1.176.518c.168.294.336.63.49.966l-1.414.056a45.069,45.069,0,0,0,2.674-3.794l-1.414-.588a21.891,21.891,0,0,1-1.288,2.3c-.14-.182-.308-.392-.49-.588.5-.784,1.078-1.862,1.582-2.828l-1.47-.518a18.506,18.506,0,0,1-1.022,2.436l-.336-.294-.784,1.148a13.189,13.189,0,0,1,1.68,1.918c-.21.308-.434.6-.644.868l-1.036.042.14,1.456,2.072-.14v5.642h1.47V23.478l.8-.056a7.618,7.618,0,0,1,.2.756l1.26-.588a11.15,11.15,0,0,0-1.092-2.618,10.7,10.7,0,0,1,1.316.924,11.535,11.535,0,0,0,1.19-1.806h3.864c-.154,4.774-.364,6.818-.784,7.252a.691.691,0,0,1-.588.238c-.378,0-1.176,0-2.058-.084a3.98,3.98,0,0,1,.56,1.68,13.364,13.364,0,0,0,2.184-.042A1.735,1.735,0,0,0,55,28.364c.588-.742.784-2.954.966-9.086.014-.21.014-.77.014-.77Zm1.582,6.4a13.168,13.168,0,0,0-1.82-3.136l-1.33.672a13.225,13.225,0,0,1,1.708,3.234ZM58.687,28h10.68V25.144H66.031V10.7H63.415a11.52,11.52,0,0,1-4.128,1.488v2.184H62.5V25.144H58.687Zm16.632,0h3.576c.288-6.744.936-10.224,4.968-15.144V10.7H72.055v2.952h7.992C76.735,18.256,75.631,22.024,75.319,28Zm16.752.336c3.648,0,6-3.192,6-9.072,0-5.832-2.352-8.9-6-8.9s-6.024,3.048-6.024,8.9C86.047,25.144,88.423,28.336,92.071,28.336Zm0-2.76c-1.536,0-2.688-1.488-2.688-6.312,0-4.8,1.152-6.144,2.688-6.144s2.664,1.344,2.664,6.144C94.735,24.088,93.607,25.576,92.071,25.576Zm14.136,2.76c3.648,0,6-3.192,6-9.072,0-5.832-2.352-8.9-6-8.9s-6.024,3.048-6.024,8.9C100.183,25.144,102.559,28.336,106.207,28.336Zm0-2.76c-1.536,0-2.688-1.488-2.688-6.312,0-4.8,1.152-6.144,2.688-6.144s2.664,1.344,2.664,6.144C108.871,24.088,107.743,25.576,106.207,25.576Zm20.216-6.844V17.094H114.117v1.638h3.262c-.1,3.374-.21,7.1-3.808,9.114a4.982,4.982,0,0,1,1.2,1.344,8.785,8.785,0,0,0,4.046-6.58h4.662c-.154,3-.378,4.368-.742,4.718a.9.9,0,0,1-.658.182c-.42,0-1.372,0-2.338-.084a4,4,0,0,1,.588,1.638,17.114,17.114,0,0,0,2.436-.014,2.029,2.029,0,0,0,1.5-.7c.546-.616.784-2.31.994-6.608.028-.21.042-.742.042-.742h-6.286c.07-.756.1-1.526.126-2.268Zm8.624,3.472V18.676h3.5V22.2Zm-4.956-3.528h3.3V22.2h-3.3Zm10.136-1.652H128.411V29.2h1.68V23.856h8.456v3.388c0,.238-.1.322-.364.336s-1.19.014-1.988-.042a6.8,6.8,0,0,1,.6,1.666,6.468,6.468,0,0,0,2.646-.308c.588-.266.784-.728.784-1.638Zm13.214,11.312c4.344,0,6.864-2.424,6.864-8.328V10.216H156.9v10.1c0,3.7-1.344,4.944-3.456,4.944-2.064,0-3.36-1.248-3.36-4.944v-10.1h-3.552v9.792C146.529,25.912,149.121,28.336,153.441,28.336ZM164.577,28h3.552V21.688h2.376c3.816,0,6.864-1.824,6.864-5.88,0-4.2-3.024-5.592-6.96-5.592h-5.832Zm3.552-9.12V13.048h2.016c2.448,0,3.744.7,3.744,2.76,0,2.04-1.176,3.072-3.624,3.072Zm13.56,3.072h2.3l.5-8.856.12-3.336h-3.552l.12,3.336Zm1.152,6.384a2.306,2.306,0,0,0,0-4.608,2.307,2.307,0,0,0,0,4.608Z" transform="translate(-247.742 1174.203)" fill="#fff"/>
  </g>
</svg>
