<svg xmlns="http://www.w3.org/2000/svg" xmlns:xlink="http://www.w3.org/1999/xlink" width="136.404" height="32" viewBox="0 0 136.404 32">
  <defs>
    <clipPath id="clip-path">
      <rect id="長方形_113" data-name="長方形 113" width="32" height="32" fill="none" stroke="#d82300" stroke-width="1"/>
    </clipPath>
  </defs>
  <g id="icon_slide_guide" transform="translate(-87.294 -4.01)">
    <path id="パス_23" data-name="パス 23" d="M-11.578-.686V-4.172H-8.12v-1.6h-7.644c.252-.7.448-1.428.644-2.142h7.28V-9.52h-6.9c.154-.7.28-1.414.406-2.114l-1.736-.21c-.112.756-.238,1.54-.406,2.324h-3.668v1.61h3.3A13.926,13.926,0,0,1-20.706-.826,10.8,10.8,0,0,1-19.614.5,14.125,14.125,0,0,0-16.03-5.04v.868h2.73V-.686h-4.256V.924h9.94V-.686Zm15.05-3.3v2.842H-1.722V-3.99ZM6.188-7.84V-9.478H-.434c.21-.686.392-1.372.56-2.058l-1.75-.322a21.162,21.162,0,0,1-.6,2.38H-6.174V-7.84H-2.8A11.262,11.262,0,0,1-6.664-2.772a8.993,8.993,0,0,1,1.106,1.33,10.88,10.88,0,0,0,2.17-2.072V1.232h1.666V.462H3.472v.7H5.236V-5.6H-2.016A18,18,0,0,0-.994-7.84Zm7.084-1.946v1.792a37.575,37.575,0,0,0,6.02,0V-9.8A28.788,28.788,0,0,1,13.272-9.786Zm1.12,5.978-1.61-.154a8.553,8.553,0,0,0-.238,1.82c0,1.442,1.162,2.3,3.57,2.3a19.827,19.827,0,0,0,3.612-.266L19.7-2a16.549,16.549,0,0,1-3.514.364c-1.428,0-1.96-.378-1.96-.994A4.752,4.752,0,0,1,14.392-3.808Zm-3.276-6.916-1.96-.168c-.014.448-.1.98-.14,1.372a39.038,39.038,0,0,0-.588,5.544A17.9,17.9,0,0,0,8.974.6L10.6.49c-.014-.2-.028-.42-.028-.574a4.225,4.225,0,0,1,.07-.658c.154-.742.616-2.268,1.008-3.43l-.868-.686c-.2.462-.42.952-.63,1.428a6.754,6.754,0,0,1-.056-.91,37.132,37.132,0,0,1,.672-5.138C10.822-9.73,11-10.43,11.116-10.724Z" transform="translate(108 26.01)" fill="#d82300"/>
    <g id="icn_finger_touch_slide" transform="translate(133 4.01)">
      <g id="グループ_91" data-name="グループ 91" clip-path="url(#clip-path)">
        <path id="パス_17" data-name="パス 17" d="M13.83,29a2.006,2.006,0,0,1-1.417-.587l-4-4A4.832,4.832,0,0,0,5,23a2,2,0,0,1,0-4H7.46a6.521,6.521,0,0,1,2.917.689L13,21V6a2,2,0,0,1,4,0v9a2,2,0,0,1,4,0v1a2,2,0,1,1,4,0v1a2,2,0,1,1,4,0V29" fill="none" stroke="#d82300" stroke-linecap="round" stroke-linejoin="round" stroke-width="2"/>
        <path id="パス_18" data-name="パス 18" d="M7,3,3,7l4,4" fill="none" stroke="#d82300" stroke-linecap="round" stroke-linejoin="round" stroke-width="2"/>
        <path id="パス_19" data-name="パス 19" d="M23,3l4,4-4,4" fill="none" stroke="#d82300" stroke-linecap="round" stroke-linejoin="round" stroke-width="2"/>
        <line id="線_20" data-name="線 20" x1="7" transform="translate(3 7)" fill="none" stroke="#d82300" stroke-linecap="round" stroke-linejoin="round" stroke-width="2"/>
        <line id="線_21" data-name="線 21" x2="7" transform="translate(20 7)" fill="none" stroke="#d82300" stroke-linecap="round" stroke-linejoin="round" stroke-width="2"/>
      </g>
    </g>
    <path id="パス_22" data-name="パス 22" d="M-16.324-9.492l-1.148-.854a5.018,5.018,0,0,1-1.442.182h-4.942a15.641,15.641,0,0,1-1.652-.1v1.988c.294-.014,1.064-.1,1.652-.1h4.746A10.847,10.847,0,0,1-21.2-4.942a15.694,15.694,0,0,1-5.74,4.018L-25.494.588A18.441,18.441,0,0,0-20.23-3.346,31.926,31.926,0,0,1-16.7.616l1.6-1.386a39.357,39.357,0,0,0-3.906-4,20.584,20.584,0,0,0,2.2-3.85A6.615,6.615,0,0,1-16.324-9.492Zm5.446-1.246v1.806c.406-.028,1.008-.042,1.456-.042H-4.06c.5,0,1.162.014,1.54.042v-1.806a13.2,13.2,0,0,1-1.512.07h-5.39A11.8,11.8,0,0,1-10.878-10.738Zm9.534,4.06-1.246-.77a2.953,2.953,0,0,1-1.022.14h-6.93c-.434,0-1.036-.042-1.624-.084v1.82c.588-.056,1.288-.07,1.624-.07H-3.78A6.074,6.074,0,0,1-5.222-3.22,9.443,9.443,0,0,1-10.066-.77L-8.68.812a10.483,10.483,0,0,0,5-3.024A10.061,10.061,0,0,0-1.61-6.09,5.187,5.187,0,0,1-1.344-6.678ZM.868-5.446,1.75-3.682A28.053,28.053,0,0,0,6.692-5.7v4.48a15.679,15.679,0,0,1-.1,1.834H8.806A9.625,9.625,0,0,1,8.68-1.218V-6.874a25.679,25.679,0,0,0,3.766-3.038l-1.512-1.442a17.948,17.948,0,0,1-3.948,3.4A22.512,22.512,0,0,1,.868-5.446Zm22.68-4.97-1.176.49A11.994,11.994,0,0,1,23.6-7.756L24.822-8.3C24.5-8.932,23.94-9.828,23.548-10.416Zm1.834-.77-1.162.546a13.108,13.108,0,0,1,1.3,2.1L26.7-9.114A18.541,18.541,0,0,0,25.382-11.186ZM17.962-1.134a15.16,15.16,0,0,1-.14,1.946h2.2c-.07-.574-.14-1.554-.14-1.946V-5.1A37.505,37.505,0,0,1,24.948-3.01l.784-1.946A48.705,48.705,0,0,0,19.88-7.14V-9.184a15.225,15.225,0,0,1,.126-1.694H17.822a9.879,9.879,0,0,1,.14,1.694Z" transform="translate(197 26.01)" fill="#d82300"/>
  </g>
</svg>
